# xmcd
#
# Track frame offsets:
#	150
#	20850
#	41932
#	67010
#	85510
#	110575
#	133430
#	153572
#	178767
#	197750
#	219660
#	246615
#	272397
#	293765
#	310717
#	329607
#
# Disc length: 4461 seconds
#
# Revision: 0
# Processed by: cddbd v1.5.1PL0 Copyright (c) Steve Scherf et al.
# Submitted via: dBpowerAMP V4.0
#
DISCID=00116b10
DTITLE=Betty Wright - Fit For A King
DYEAR=2001
DGENRE=Blues
TTITLE0=Why We Do (What We Do)
TTITLE1=Tribute to My Girls
TTITLE2=U-R-A-Ho (And You Don't Know)
TTITLE3=Fit for a King
TTITLE4=Second Time in Love
TTITLE5=You Still Depend on Me
TTITLE6=Just Say the Word
TTITLE7=Somebody's Only Love
TTITLE8=How Could You Just Walk Away?
TTITLE9=It Was Love When It Was Love
TTITLE10=Milk and Honey
TTITLE11=Church Is Out
TTITLE12=Something's Going On
TTITLE13=Tight Ta' Death
TTITLE14=Pull Your Pants Up!!!
TTITLE15=Thoughts
EXTD=
EXTT0=
EXTT1=
EXTT2=
EXTT3=
EXTT4=
EXTT5=
EXTT6=
EXTT7=
EXTT8=
EXTT9=
EXTT10=
EXTT11=
EXTT12=
EXTT13=
EXTT14=
EXTT15=
PLAYORDER=
